<svg width="1024" height="1024" viewBox="0 0 1024 1024" fill="none" xmlns="http://www.w3.org/2000/svg">
<rect width="1024" height="1024" fill="#252525"/>
<path d="M719.424 285.643C717.389 284.03 715.007 282.909 712.467 282.369C709.926 281.828 707.294 281.883 704.778 282.527L431.498 350.814C427.807 351.736 424.529 353.864 422.185 356.86C419.841 359.856 418.565 363.549 418.56 367.352V602.301C404.31 592.785 387.287 588.301 370.196 589.564C353.105 590.826 336.926 597.762 324.23 609.268C311.535 620.775 303.051 636.192 300.127 653.071C297.203 669.949 300.007 687.32 308.093 702.423C316.179 717.526 329.083 729.495 344.754 736.427C360.426 743.36 377.966 744.858 394.588 740.685C411.209 736.511 425.958 726.904 436.491 713.392C447.024 699.879 452.736 683.236 452.72 666.106V466.048L691.84 406.297V534.014C677.59 524.498 660.567 520.015 643.476 521.277C626.384 522.539 610.206 529.475 597.51 540.982C584.815 552.488 576.331 567.906 573.407 584.784C570.483 601.662 573.287 619.033 581.373 634.136C589.459 649.24 602.363 661.208 618.034 668.141C633.706 675.073 651.246 676.572 667.867 672.398C684.489 668.224 699.238 658.618 709.771 645.105C720.303 631.593 726.016 614.949 726 597.82V299.065C725.994 296.476 725.399 293.922 724.26 291.597C723.12 289.271 721.467 287.235 719.424 285.643Z" fill="#FAF9F6"/>
</svg>
